<?xml version="1.0" encoding="UTF-8"?>
<svg width="41px" height="61px" viewBox="0 0 41 61" version="1.1" xmlns="http://www.w3.org/2000/svg" xmlns:xlink="http://www.w3.org/1999/xlink" preserveAspectRatio="none">
    <!-- Generator: Sketch 52.2 (67145) - http://www.bohemiancoding.com/sketch -->
    <title>Shape</title>
    <desc>Created with Sketch.</desc>
    <g id="Page-1" stroke="none" stroke-width="1" fill="none" fill-rule="evenodd">
        <g id="Startvy-Copy-18" transform="translate(-79.000000, -686.000000)" fill="#FFD691" fill-rule="nonzero">
            <g id="tap" transform="translate(79.000000, 686.000000)">
                <path d="M36.6394355,26.433373 C35.8973086,26.433373 35.1937832,26.6448477 34.5867617,27.0088223 C34.3631348,24.4111992 32.1772617,22.3667461 29.5226895,22.3667461 C28.2325156,22.3667461 27.0521895,22.8506953 26.1544648,23.6457207 C25.4346172,21.7130215 23.5700664,20.333373 21.3893164,20.333373 C20.0737656,20.333373 18.8719941,20.836623 17.9681934,21.660123 L16.2999863,4.97257227 C15.8261641,0.645623047 13.2744102,0 11.7951602,0 C9.10710938,0 7.1560625,2.13809766 7.15713477,5.11994922 L8.17376172,33.5865762 C8.1930625,34.1467754 8.64758398,34.5829492 9.22601172,34.566627 C9.78621094,34.5453008 10.2253633,34.0745762 10.2060625,33.5133047 L9.18943555,5.08325391 C9.18943555,3.56540234 9.99458789,2.03325391 11.7951602,2.03325391 C12.3237871,2.03325391 13.9321855,2.03325391 14.2778125,5.18488086 L16.3111855,25.5182539 C16.3650371,26.057127 16.8205117,26.4769785 17.3735625,26.4321816 C17.9144609,26.4047793 18.3394355,25.9583594 18.3394355,25.4165078 C18.3394355,23.734957 19.7078848,22.3665078 21.3894355,22.3665078 C23.0709863,22.3665078 24.4394355,23.734957 24.4394355,25.4165078 L24.4394355,27.45 C24.4394355,28.0111523 24.8949102,28.466627 25.4560625,28.466627 C26.0172148,28.466627 26.4726895,28.0111523 26.4726895,27.45 C26.4726895,25.7684492 27.8411387,24.4 29.5226895,24.4 C31.2042402,24.4 32.5726895,25.7684492 32.5726895,27.45 L32.5726895,30.5 C32.5726895,31.0611523 33.0281641,31.516627 33.5893164,31.516627 C34.1504688,31.516627 34.6059434,31.0611523 34.6059434,30.5 C34.6059434,29.4355977 35.5747949,28.466627 36.6393164,28.466627 C37.6651172,28.466627 38.6726895,29.4741992 38.6726895,30.5 L38.6726895,43.716627 C38.6726895,48.1279277 37.7312402,50.3544277 36.7339141,52.7110293 C35.9947656,54.4576309 35.2322656,56.2582031 34.7554648,58.966627 L12.0441641,58.966627 C10.9207871,54.056127 8.32113867,48.0852754 4.30729102,41.2014492 C3.87314258,40.4562246 3.43696875,39.7273223 3.00496484,39.0176016 C1.89683789,37.2018984 1.76566406,34.7882285 2.68578711,33.1494492 C3.10361328,32.4042246 3.92711328,31.516627 5.47248633,31.516627 C6.03363867,31.516627 6.48911328,31.0611523 6.48911328,30.5 C6.48911328,29.9388477 6.03363867,29.483373 5.47248633,29.483373 C3.49916016,29.483373 1.8795625,30.4319707 0.912736328,32.1541484 C-0.370289062,34.439623 -0.227916016,37.6237754 1.2695625,40.077 C1.69453711,40.7754023 2.1235625,41.4932246 2.55163477,42.2252246 C6.6762832,49.3022969 9.25853711,55.3433223 10.2264355,60.1825762 C10.3210332,60.6584238 10.7377871,61 11.2228086,61 L35.6228086,61 C36.1291563,61 36.5571094,60.6279238 36.6293086,60.1276523 C37.0502324,57.1813047 37.841207,55.31175 38.6066855,53.5030762 C39.6385625,51.0630762 40.7060625,48.54075 40.7060625,43.716627 L40.7060625,30.5 C40.7060625,28.3721484 38.7672871,26.433373 36.6394355,26.433373 Z" id="Shape"></path>
            </g>
        </g>
    </g>
</svg>