<?xml version="1.0" encoding="UTF-8"?>
<svg width="97px" height="95px" viewBox="0 0 97 95" version="1.1" xmlns="http://www.w3.org/2000/svg" xmlns:xlink="http://www.w3.org/1999/xlink" preserveAspectRatio="none">
    <!-- Generator: Sketch 52.2 (67145) - http://www.bohemiancoding.com/sketch -->
    <title>beer-pong-3</title>
    <desc>Created with Sketch.</desc>
    <defs>
        <filter x="-35.1%" y="-33.9%" width="170.3%" height="170.3%" filterUnits="objectBoundingBox" id="filter-1">
            <feOffset dx="0" dy="2" in="SourceAlpha" result="shadowOffsetOuter1"></feOffset>
            <feGaussianBlur stdDeviation="8.5" in="shadowOffsetOuter1" result="shadowBlurOuter1"></feGaussianBlur>
            <feColorMatrix values="0 0 0 0 0   0 0 0 0 0   0 0 0 0 0  0 0 0 0.564368207 0" type="matrix" in="shadowBlurOuter1" result="shadowMatrixOuter1"></feColorMatrix>
            <feMerge>
                <feMergeNode in="shadowMatrixOuter1"></feMergeNode>
                <feMergeNode in="SourceGraphic"></feMergeNode>
            </feMerge>
        </filter>
    </defs>
    <g id="Page-1" stroke="none" stroke-width="1" fill="none" fill-rule="evenodd">
        <g id="Startvy-Copy-18" transform="translate(-220.000000, -140.000000)" fill="#FFD691" fill-rule="nonzero">
            <g id="Group-3-Copy-5" filter="url(#filter-1)" transform="translate(197.000000, 123.000000)">
                <g id="Group" transform="translate(3.000000, 32.000000)">
                    <g id="Group-2">
                        <g id="beer-pong-3" transform="translate(36.000000, 0.000000)">
                            <path d="M62.1815573,0.120739669 L31.2273535,0.120739669 C30.7048226,0.120739669 30.2813902,0.545219008 30.2813902,1.06876033 C30.2813902,1.59242769 30.7048226,2.01678099 31.2273535,2.01678099 L62.1815573,2.01678099 C62.3554827,2.01678099 62.4968365,2.15856818 62.4968365,2.33274587 L62.4968365,4.41745868 C62.4968365,4.5917624 62.355357,4.73342355 62.1815573,4.73342355 L61.0363908,4.73342355 C60.9784157,4.72233264 60.9191829,4.71577893 60.8591956,4.71577893 L21.0843429,4.71577893 C21.0243556,4.71577893 20.9652486,4.72233264 20.9071477,4.73342355 L19.7619812,4.73342355 C19.5880558,4.73342355 19.446702,4.59163636 19.446702,4.41745868 L19.446702,2.3328719 C19.446702,2.15856818 19.5880558,2.01690702 19.7619812,2.01690702 L25.5093184,2.01690702 C26.0318493,2.01690702 26.4552817,1.59242769 26.4552817,1.06888636 C26.4552817,0.545345041 26.0318493,0.120865702 25.5093184,0.120865702 L19.7619812,0.120865702 C18.5448803,0.120865702 17.5546496,1.11325 17.5546496,2.33299793 L17.5546496,4.41771074 C17.5546496,5.63745868 18.5448803,6.62984298 19.7619812,6.62984298 L20.2345856,6.62984298 L21.8962465,22.4333802 C21.9529641,22.9714153 22.2726449,23.4199669 22.7190913,23.6596818 L25.1618447,45.6404773 C25.2414505,46.3591178 25.7921516,46.9178223 26.4852125,47.0255806 L27.5750447,56.3650083 C27.6677295,57.1612851 28.3409204,57.7618326 29.1410026,57.7618326 L29.3014718,57.7618326 L29.943097,59.7792438 C30.1523609,60.4372624 30.7560067,60.8793864 31.4452948,60.8793864 L50.4984952,60.8793864 C51.1876576,60.8793864 51.7914291,60.4372624 52.000693,59.7791178 L52.6423183,57.7618326 L52.8027874,57.7618326 C53.6028697,57.7618326 54.2760605,57.1612851 54.3687453,56.3652603 L55.4585776,47.0255806 C56.1513869,46.9178223 56.7019622,46.3592438 56.7819453,45.6407293 L59.2246988,23.6596818 C59.6710194,23.4199669 59.990826,22.9714153 60.0475435,22.4332541 L61.7089529,6.62959091 L62.1815573,6.62959091 C63.3986582,6.62959091 64.3888889,5.63720661 64.3888889,4.41745868 L64.3888889,2.3328719 C64.3888889,1.11299793 63.3986582,0.120739669 62.1815573,0.120739669 Z M50.267978,58.983093 L31.6756863,58.983093 L31.3088457,57.8297645 L50.6348186,57.8297645 L50.267978,58.983093 Z M52.5219664,55.8654132 L29.4215722,55.8654132 L28.4002789,47.1138037 L53.5431339,47.1138037 L52.5219664,55.8654132 Z M54.9326512,45.1494525 L27.0108874,45.1494525 L24.6437154,23.847345 L57.2998231,23.847345 L54.9326512,45.1494525 Z M58.1954826,21.9514298 L23.7481816,21.9514298 L22.1372018,6.62971694 L59.8065882,6.62971694 L58.1954826,21.9514298 Z" id="Shape"></path>
                            <path d="M11.1326125,38.5648554 C8.87610894,38.5648554 6.70298394,39.2379979 4.8480306,40.511436 C4.41692687,40.8073616 4.30688726,41.3974483 4.60217068,41.8293636 C4.89732834,42.2612789 5.48626031,42.3716839 5.91723828,42.0756322 C7.45590636,41.0192231 9.25942405,40.4608967 11.1326125,40.4608967 C16.2278864,40.4608967 20.3732984,44.6153244 20.3732984,49.7216798 C20.3732984,54.8281612 16.2278864,58.9824628 11.1326125,58.9824628 C6.03733865,58.9824628 1.89192665,54.8280351 1.89192665,49.7216798 C1.89192665,48.4841612 2.13112131,47.2833182 2.60297114,46.1522975 C2.80443793,45.6692128 2.57706467,45.1139112 2.09502832,44.9118802 C1.61324349,44.7102273 1.0588954,44.937843 0.857302843,45.4209277 C0.288492405,46.7848574 0,48.231969 0,49.7216798 C0,55.8736054 4.99403743,60.8786302 11.1326125,60.8786302 C17.2711876,60.8786302 22.265225,55.8736054 22.265225,49.7216798 C22.2653508,43.5700062 17.2713134,38.5648554 11.1326125,38.5648554 Z" id="Shape"></path>
                        </g>
                    </g>
                </g>
            </g>
        </g>
    </g>
</svg>