<?xml version="1.0" encoding="UTF-8"?>
<svg width="36px" height="61px" viewBox="0 0 36 61" version="1.1" xmlns="http://www.w3.org/2000/svg" xmlns:xlink="http://www.w3.org/1999/xlink" preserveAspectRatio="none">
    <!-- Generator: Sketch 52.2 (67145) - http://www.bohemiancoding.com/sketch -->
    <title>beer-pong</title>
    <desc>Created with Sketch.</desc>
    <g id="Page-1" stroke="none" stroke-width="1" fill="none" fill-rule="evenodd">
        <g id="Startvy-Copy-18" transform="translate(-81.000000, -509.000000)" fill="#FFD691" fill-rule="nonzero">
            <g id="beer-pong" transform="translate(81.000000, 509.000000)">
                <path d="M25.5587062,17.122807 C25.0651439,17.122807 24.6655493,17.5222649 24.6655493,18.0146199 C24.6655493,18.5074394 25.0651439,18.9064327 25.5587062,18.9064327 L31.0218488,18.9064327 C31.5144805,18.9064327 31.9150056,19.3063551 31.9150056,19.7982456 C31.9150056,20.2901362 31.5144805,20.6900585 31.0218488,20.6900585 L4.8216513,20.6900585 C4.32901946,20.6900585 3.92849447,20.2901362 3.92849447,19.7982456 C3.92849447,19.3063551 4.32901946,18.9064327 4.8216513,18.9064327 L21.7176666,18.9064327 C22.2112288,18.9064327 22.6108235,18.5074394 22.6108235,18.0146199 C22.6108235,17.5222649 22.2112288,17.122807 21.7176666,17.122807 L4.8216513,17.122807 C3.34375589,17.122807 2.14171565,18.3230385 2.14171565,19.7982456 C2.14171565,21.0876584 3.06045773,22.1671235 4.27831423,22.4184104 L4.3155291,22.9920504 C4.34762689,23.483941 4.77559787,23.8569231 5.26450823,23.8244091 C5.75667492,23.7928241 6.13021907,23.3687485 6.09812127,22.8773224 L6.07207086,22.4736842 L29.7714292,22.4736842 L27.6241313,55.6491228 L25.5433551,55.6491228 C25.0502579,55.6491228 24.6501982,56.0485807 24.6501982,56.5409357 C24.6501982,57.0337551 25.0502579,57.4327485 25.5433551,57.4327485 L27.568309,57.4327485 L27.568309,59.2163743 L8.27519105,59.2163743 L8.27519105,57.4327485 L21.7325526,57.4327485 C22.2261147,57.4327485 22.6257094,57.0337551 22.6257094,56.5409357 C22.6257094,56.0485807 22.2261147,55.6491228 21.7325526,55.6491228 L8.21936875,55.6491228 L6.34234381,26.6535926 C6.31071129,26.161702 5.88599652,25.7905778 5.39382996,25.8207694 C4.90119811,25.8528189 4.52811912,26.2768945 4.55975164,26.7683206 L6.48887739,56.5697339 L6.48887739,60.1081871 C6.48887739,60.6010066 6.88893722,61 7.38203422,61 L28.4614659,61 C28.955028,61 29.3546227,60.6010066 29.3546227,60.1081871 L29.3546227,56.5697339 L31.5651859,22.4184104 C32.7830423,22.1671235 33.7017844,21.0876584 33.7017844,19.7982456 C33.7017844,18.3230385 32.499279,17.122807 31.0218488,17.122807 L25.5587062,17.122807 Z" id="Shape"></path>
                <path d="M30.5454985,0.118908382 C27.6236662,0.118908382 25.2461013,2.49289568 25.2461013,5.41033138 C25.2461013,8.32823154 27.6236662,10.7017544 30.5454985,10.7017544 C33.4677959,10.7017544 35.8453608,8.32823154 35.8453608,5.41033138 C35.8453608,2.49289568 33.4677959,0.118908382 30.5454985,0.118908382 Z M30.5454985,8.91812865 C28.6084646,8.91812865 27.0324149,7.34491499 27.0324149,5.41033138 C27.0324149,3.47621223 28.6084646,1.90253411 30.5454985,1.90253411 C32.4829975,1.90253411 34.0590472,3.47621223 34.0590472,5.41033138 C34.0590472,7.34491499 32.4829975,8.91812865 30.5454985,8.91812865 Z" id="Shape"></path>
                <path d="M2.66644529,1.20162497 C2.73110615,0.713450292 2.38733378,0.264756885 1.89842342,0.200193439 C1.28577369,0.118908382 0.923859038,0.11797941 0.886179014,0.118908382 C0.394012444,0.122159789 -0.0013955635,0.522082115 1.67060393e-15,1.01304365 C0.0013955635,1.50446975 0.401920574,1.90206966 0.894087143,1.90253411 C0.896413162,1.90253411 1.17598983,1.9039276 1.6635046,1.96849117 C1.70351064,1.97360042 1.74305141,1.97592294 1.78212702,1.97592294 C2.2231232,1.97592294 2.6069015,1.6498538 2.66644529,1.20162497 Z" id="Shape"></path>
                <path d="M15.1204009,11.631655 C15.283216,11.9266036 15.5883779,12.0928896 15.9033087,12.0928896 C16.049377,12.0928896 16.1973061,12.0575887 16.3336056,11.9818774 C16.7657632,11.7440607 16.9229961,11.2015412 16.6843556,10.7704983 C16.3517478,10.1680602 15.9795991,9.57258921 15.5781437,9.00034262 C15.2953107,8.59716889 14.7384833,8.49916234 14.3342368,8.78156975 C13.9299902,9.06444173 13.8318361,9.62043129 14.1151343,10.023605 C14.4803051,10.5438292 14.8184953,11.0849552 15.1204009,11.631655 Z" id="Shape"></path>
                <path d="M10.1801271,5.89339669 C10.5248298,6.16790786 10.8690673,6.45960499 11.2049316,6.76059183 C11.3482088,6.88832547 11.4900905,7.01931043 11.6273203,7.14983093 C11.7999043,7.31379441 12.0213327,7.39507947 12.242296,7.39507947 C12.4786104,7.39507947 12.7144596,7.30171784 12.8898347,7.11731698 C13.2298856,6.76059183 13.2154648,6.19624147 12.8577369,5.85670227 C12.7084123,5.71456966 12.5535053,5.57197247 12.3976681,5.43262671 C12.037149,5.10934454 11.666396,4.79581655 11.2956427,4.49993908 C10.9100037,4.19244938 10.3480592,4.255155 10.0401062,4.6397493 C9.73261829,5.0243436 9.79495325,5.58590698 10.1801271,5.89339669 Z" id="Shape"></path>
                <path d="M5.27706828,2.97038715 C5.85157283,3.20588152 6.42979887,3.47899909 6.99593002,3.78230845 C7.1303687,3.85430367 7.27504153,3.88867568 7.41738834,3.88867568 C7.73604074,3.88867568 8.04445887,3.71820934 8.20541323,3.41861598 C8.43893647,2.98432167 8.27565632,2.44412469 7.84070752,2.21095273 C7.2206147,1.8788453 6.58610132,1.57925195 5.95530919,1.32053335 C5.49849674,1.13334552 4.97702343,1.35165393 4.78955351,1.80684996 C4.60254886,2.26251069 4.82072099,2.78319932 5.27706828,2.97038715 Z" id="Shape"></path>
                <path d="M16.5401481,15.1087963 C16.6657482,15.5886102 16.7048239,15.8710176 16.7048239,15.871482 C16.7620417,16.3048474 17.1253519,16.6323099 17.5626265,16.6462446 C17.5723955,16.646709 17.5816992,16.646709 17.5910029,16.646709 C18.0166479,16.646709 18.3855404,16.3452577 18.4674131,15.9253625 C18.4678782,15.9225755 18.5269569,15.6239111 18.6688385,15.1450263 C18.8083943,14.672644 18.5385865,14.1765731 18.0650272,14.0372274 C17.9170982,13.9935658 17.7668431,13.9898499 17.6263571,14.0200414 C17.4844753,13.9838115 17.3314292,13.9819536 17.1793134,14.0209703 C16.7020327,14.1449881 16.4159434,14.6322339 16.5401481,15.1087963 Z" id="Shape"></path>
                <path d="M18.7567586,12.4040951 C18.8963144,12.4835222 19.047965,12.5211455 19.1977548,12.5211455 C19.5084989,12.5211455 19.8104045,12.35904 19.9746152,12.0701297 C20.2551223,11.5787037 20.5616797,11.1137534 20.8868446,10.6882843 C21.1859592,10.2967227 21.110599,9.73701727 20.7184473,9.43835283 C20.3262957,9.13968838 19.7657467,9.21493515 19.4666323,9.60649665 C19.093088,10.0951359 18.7418727,10.6274366 18.42229,11.1880711 C18.1780674,11.6158626 18.3278573,12.1607045 18.7567586,12.4040951 Z" id="Shape"></path>
                <path d="M22.7508444,8.60924558 C22.9187764,8.60924558 23.0894997,8.56186796 23.2402199,8.4629325 C23.465835,8.31522606 23.6993582,8.17727367 23.9352075,8.05325591 C24.3715519,7.82379995 24.5390188,7.28453189 24.3092169,6.84884409 C24.0794152,6.4131564 23.5393343,6.24594149 23.10299,6.47539745 C22.8164355,6.62589087 22.5326722,6.79310578 22.2596081,6.97193281 C21.8474534,7.24226365 21.7325526,7.79546634 22.0032907,8.20700076 C22.1749442,8.46757742 22.4601031,8.60924558 22.7508444,8.60924558 Z" id="Shape"></path>
            </g>
        </g>
    </g>
</svg>