<?xml version="1.0" encoding="UTF-8"?>
<svg width="46px" height="61px" viewBox="0 0 46 61" version="1.1" xmlns="http://www.w3.org/2000/svg" xmlns:xlink="http://www.w3.org/1999/xlink" preserveAspectRatio="none">
    <!-- Generator: Sketch 52.2 (67145) - http://www.bohemiancoding.com/sketch -->
    <title>cards</title>
    <desc>Created with Sketch.</desc>
    <g id="Page-1" stroke="none" stroke-width="1" fill="none" fill-rule="evenodd">
        <g id="Startvy-Copy-18" transform="translate(-254.000000, -509.000000)" fill="#FFD691" fill-rule="nonzero">
            <g id="cards" transform="translate(254.000000, 509.000000)">
                <path d="M44.4282936,6.34912305 C43.5775931,5.19512695 42.3278956,4.44132422 40.9095845,4.22639453 L13.4509417,0.0651699219 C10.7617074,-0.342886719 8.31573468,1.20355859 7.53908589,3.66679102 L5.44643894,3.66679102 C2.48520458,3.66679102 0.076078908,6.07378906 0.076078908,9.0324082 L0.076078908,55.6343828 C0.076078908,58.593002 2.48520458,61 5.44643894,61 L33.2192947,61 C36.1805291,61 38.5896548,58.593002 38.5896548,55.6343828 L38.5896548,55.2874453 L42.2025682,31.4891055 C42.2828207,30.9607168 41.9191206,30.4674746 41.3902648,30.387293 C40.8620053,30.3065156 40.3676117,30.6704902 40.2874784,31.1988789 L38.589774,42.3818945 L38.589774,9.0324082 C38.589774,7.75093164 38.1372357,6.5733457 37.3841976,5.64964844 L40.6192206,6.13991211 C41.5259667,6.27728125 42.3247953,6.75932422 42.868676,7.49704297 C43.4125567,8.23476172 43.6363813,9.13987305 43.4988907,10.0458184 L40.9210321,27.0266934 C40.8407796,27.555082 41.2044797,28.0483242 41.7333354,28.1285059 C41.7824647,28.1360117 41.8314748,28.1395859 41.8797694,28.1395859 C42.3504331,28.1395859 42.7635011,27.7961035 42.8361218,27.3168008 L45.4139805,10.3360449 C45.6291002,8.91898633 45.2791133,7.503 44.4282936,6.34912305 Z M10.6059722,2.57701172 C11.3373075,2.05231641 12.2442921,1.83988867 13.1604586,1.97856836 L24.2998179,3.66667187 L9.63817213,3.66667187 C9.8724904,3.23991016 10.1999397,2.86831055 10.6059722,2.57701172 Z M33.219414,59.0646797 L5.44643894,59.0646797 C3.55329044,59.0646797 2.01310991,57.5258594 2.01310991,55.6343828 L2.01310991,9.0324082 C2.01310991,7.14093164 3.55329044,5.60211133 5.44643894,5.60211133 L33.2192947,5.60211133 C35.1124432,5.60211133 36.6526238,7.14093164 36.6526238,9.0324082 L36.6526238,55.6343828 L36.652743,55.6343828 C36.652743,57.5257402 35.1125625,59.0646797 33.219414,59.0646797 Z" id="Shape"></path>
                <path d="M9.88978106,13.0580508 L8.14640545,9.05826172 C7.99245895,8.70524805 7.64378383,8.47697461 7.25838096,8.47697461 C6.87297809,8.47697461 6.52430297,8.70524805 6.37035646,9.05826172 L4.62698086,13.0580508 C4.41341139,13.5480762 4.63783224,14.1182832 5.12829078,14.3316641 C5.61863007,14.5446875 6.18946038,14.3207031 6.40302985,13.8307969 L7.25838096,11.8683125 L8.11373207,13.8307969 C8.27244841,14.1950098 8.62851678,14.4123223 9.00223355,14.4123223 C9.13125765,14.4123223 9.26254743,14.3863496 9.38847114,14.3316641 C9.87881043,14.1182832 10.1033505,13.5480762 9.88978106,13.0580508 Z" id="Shape"></path>
                <path d="M33.3032439,50.0423984 C32.8125468,49.8286602 32.2420743,50.0531211 32.0285048,50.5432656 L31.1731537,52.50575 L30.3178026,50.5432656 C30.1042331,50.0532402 29.5336413,49.8290176 29.0430635,50.0423984 C28.5527242,50.2556602 28.3281841,50.8259863 28.5417536,51.3158926 L30.2851292,55.3156816 C30.4390757,55.6686953 30.7877508,55.8970879 31.1731537,55.8970879 C31.5585566,55.8970879 31.9072317,55.6688145 32.0611782,55.3156816 L33.8045538,51.3158926 C34.0181233,50.8259863 33.7935832,50.2556602 33.3032439,50.0423984 Z" id="Shape"></path>
                <path d="M29.9704392,27.562707 L20.0178155,17.618873 C19.6395674,17.240959 19.0262855,17.240959 18.6481567,17.618873 L16.6869187,19.5783789 C16.3086706,19.956293 16.3086706,20.5690332 16.6869187,20.9468281 C17.0651668,21.3247422 17.6784487,21.3247422 18.0565776,20.9468281 L19.3328668,19.671666 L28.6006611,28.9312754 C30.2204979,30.5496816 30.2204979,33.183166 28.6005418,34.8015723 C26.9805858,36.4199785 24.3448928,36.4199785 22.7251753,34.8016914 L21.8403704,33.9175488 C21.5632428,33.640666 21.146836,33.5579824 20.7848054,33.7077422 C20.4228939,33.8573828 20.186787,34.2103965 20.186787,34.6017734 L20.186787,38.6849609 C20.186787,40.6064609 21.594366,42.2058047 23.4333769,42.5075879 L23.4333769,43.0748164 L15.2321183,43.0748164 L15.2321183,42.5075879 C17.0711291,42.2058047 18.4787082,40.6064609 18.4787082,38.6849609 L18.4787082,34.6017734 C18.4787082,34.2103965 18.2427205,33.857502 17.8806898,33.7077422 C17.5190169,33.5579824 17.1022523,33.640666 16.825244,33.9175488 L15.9404392,34.8015723 C14.3206023,36.4199785 11.6847902,36.4200977 10.0649533,34.8016914 C8.44511653,33.183166 8.44511653,30.5496816 10.0648341,28.9312754 L15.2798167,23.7210176 C15.6580648,23.3431035 15.6580648,22.7303633 15.2798167,22.3525684 C14.9015686,21.9746543 14.2882867,21.9746543 13.9101578,22.3525684 L8.69517526,27.5628262 C6.32003468,29.9358691 6.32015392,33.7970977 8.6952945,36.1702598 C10.8286043,38.3015664 14.1635554,38.5184023 16.5415579,36.8212441 L16.5415579,38.6849609 C16.5415579,39.7538906 15.6713011,40.6233789 14.6015458,40.6233789 C13.8811811,40.6233789 13.294968,41.2089551 13.294968,41.9288027 L13.294968,44.0425957 C13.294968,44.5770605 13.7286655,45.0102559 14.2634835,45.0102559 L24.4018924,45.0102559 C24.9368297,45.0102559 25.3704079,44.5770605 25.3704079,44.0425957 L25.3704079,41.9288027 C25.3704079,41.2089551 24.7843141,40.6233789 24.0638301,40.6233789 C22.9940748,40.6233789 22.123818,39.7538906 22.123818,38.6849609 L22.123818,36.821125 C24.5021782,38.5185215 27.8372486,38.3016855 29.9705584,36.1700215 C32.3455797,33.7969785 32.3455797,29.93575 29.9704392,27.562707 Z" id="Shape"></path>
            </g>
        </g>
    </g>
</svg>