<?xml version="1.0" encoding="utf-8"?>
<!-- Generator: Adobe Illustrator 21.1.0, SVG Export Plug-In . SVG Version: 6.00 Build 0)  -->
<svg version="1.1" id="Layer_1" xmlns="http://www.w3.org/2000/svg" xmlns:xlink="http://www.w3.org/1999/xlink" x="0px" y="0px"
	 viewBox="0 0 841.9 368.5" style="enable-background:new 0 0 841.9 368.5;" xml:space="preserve">
<style type="text/css">
	.st0{fill:#FDFDFD;}
	.st1{fill:#FDFCFD;}
	.st2{fill:#FDBF5A;}
	.st3{fill:#F6CC8D;}
	.st4{fill:#F2C88C;}
	.st5{fill:#F5CB8D;}
	.st6{fill:#E8BC87;}
	.st7{fill:#F8CE8E;}
	.st8{fill:#6C2E55;}
</style>
<g>
	<path class="st0" d="M345.7,144.5c0,9.9,0.3,19.9-0.1,29.8c-0.2,5.2,1.2,9.3,4.6,13.2c4.1,4.7,10.3,9.8,10.5,14.9
		c0.2,4.7-6.2,9.9-10.3,14.3c-3.9,4.2-4.9,8.8-4.9,14.3c0.3,19.5,0,38.9,0.2,58.4c0,3.5-0.9,6-3.6,8.4c-10.3,9.2-20.4,18.6-30.4,28
		c-2,1.9-4.1,2.8-7,2.8c-19.3-0.1-38.5-0.1-57.8,0c-2.8,0-4.9-0.8-7-2.7c-10-9.4-20.2-18.8-30.4-28c-2.6-2.4-3.7-4.8-3.7-8.4
		c0.2-19.7-0.1-39.3,0.2-59c0.1-5.4-1.2-9.7-4.7-13.8c-4-4.5-10.1-9.6-10.1-14.5c0-4.9,6.1-10,10.1-14.6c3.5-4.1,4.8-8.3,4.8-13.7
		c-0.3-20.5,0-40.9-0.2-61.4c0-4,1.2-6.7,4.2-9.4c10-8.9,19.8-18,29.5-27.2c2.4-2.3,4.8-3.1,8.1-3.1c18.8,0.1,37.7,0.1,56.5,0
		c3,0,5.3,0.7,7.6,2.8c10,9.5,20.1,18.8,30.4,28c2.7,2.4,3.6,4.9,3.5,8.4C345.6,123,345.7,133.7,345.7,144.5z M253.3,200.8
		c0,25.1,0.1,50.3-0.1,75.4c0,4,1.1,5.1,5,5c11.9-0.3,23.9-0.2,35.9,0c3.5,0.1,4.4-0.9,4.4-4.4c-0.1-50.7-0.1-101.3,0-152
		c0-3.5-1-4.4-4.4-4.4c-11.7,0.2-23.5,0.3-35.3,0c-4.6-0.1-5.7,1.1-5.7,5.6C253.4,150.9,253.3,175.9,253.3,200.8z"/>
	<path class="st1" d="M638.5,328.5c-9.7,0-19.5-0.1-29.2,0.1c-2.6,0-4.5-0.7-6.5-2.5c-10.2-9.6-20.5-19.1-30.9-28.4
		c-2.5-2.2-3.5-4.5-3.4-7.9c0.1-19.5-0.2-38.9,0.2-58.4c0.1-6.1-1.4-10.8-5.3-15.4c-3.7-4.4-10-8.8-9.6-14c0.4-4.8,5.8-9.4,9.6-13.6
		c4.1-4.5,5.4-9.4,5.3-15.4c-0.3-20.3-0.1-40.5-0.2-60.8c0-3.5,0.9-6,3.6-8.4c10.3-9.2,20.3-18.6,30.5-28c5.3-4.9,8.4-4.1,10.7,2.6
		c1.1,3.4,3.3,5.5,6.4,6.8c26.2,11,52.3,22,78.5,33c1.1,0.5,2.5,1.3,3.5,1c8.4-2.5,6.6,3.4,6.6,7.8c0,15.6,0.2,31.2-0.1,46.8
		c-0.1,5.4,1.2,9.6,4.7,13.7c4,4.7,10.9,9.4,10.5,14.9c-0.3,5-6.4,9.9-10.5,14.4c-3.7,4-4.8,8.4-4.7,13.7c0.3,19.5,0,38.9,0.2,58.4
		c0,3.7-0.9,6.4-3.8,9c-10.1,9-20.1,18.3-30,27.6c-2.4,2.3-4.9,3.1-8.1,3C657.1,328.4,647.8,328.5,638.5,328.5z M661,200.8
		c0-24.9-0.1-49.8,0.1-74.8c0-4.6-1.2-5.7-5.7-5.6c-11.7,0.3-23.5,0.2-35.3,0c-3.5-0.1-4.4,1-4.4,4.4c0.1,50.7,0.1,101.3,0,152
		c0,3.5,1,4.4,4.4,4.4c11.7-0.2,23.5-0.3,35.3,0c4.6,0.1,5.7-1.1,5.6-5.7C660.9,250.6,661,225.7,661,200.8z"/>
	<path class="st0" d="M391,257c0-9.9-0.3-19.9,0.1-29.8c0.2-5.4-1.2-9.7-4.8-13.7c-4-4.5-10.2-9.7-10.1-14.5c0-4.9,6.2-10,10.2-14.5
		c3.6-4.1,4.8-8.4,4.7-13.8c-0.3-19.3,0-38.5-0.2-57.8c-0.1-4.3,1.3-7.1,4.4-9.9c9.9-8.7,19.5-17.7,29.1-26.7c2.3-2.2,4.6-3.3,8-3.3
		c19.1,0.2,38.1,0.1,57.2,0c2.8,0,4.9,0.7,7,2.7c10.2,9.6,20.5,19.1,30.8,28.4c2.3,2.1,3.3,4.2,3.3,7.3c-0.1,15.6-0.2,31.2,0,46.8
		c0.1,4.1-1.3,5.1-5.2,5c-12.4-0.2-24.7-0.3-37.1,0c-4.5,0.1-5.3-1.6-5.2-5.6c0.3-10.9,0-21.9,0.2-32.8c0.1-3.4-0.8-4.5-4.4-4.4
		c-12.2,0.2-24.3,0.2-36.5,0c-3.4,0-4.6,0.8-4.4,4.3c1,23.9-1.3,47.7-1.1,71.5c0.1,8.7-0.3,17.4,0.1,26.1c0.7,18.2,1.4,36.3,1,54.5
		c-0.1,3,0.5,4.3,3.9,4.2c12.4-0.2,24.7-0.2,37.1,0c3.7,0.1,4.3-1.3,4.2-4.6c-0.2-12.8,0.1-25.5-0.2-38.3c-0.1-4.1,0.8-5.7,5.3-5.6
		c12.4,0.3,24.7,0.3,37.1,0c4-0.1,5.1,1.2,5.1,5.2c-0.2,17.4-0.2,34.9,0,52.3c0,3.2-1,5.2-3.3,7.3c-10.4,9.4-20.7,18.9-30.8,28.4
		c-2.1,2-4.2,2.6-7,2.6c-19.1-0.1-38.1-0.1-57.2,0c-3.1,0-5.3-0.8-7.5-2.9c-10-9.4-20.2-18.8-30.4-28c-2.5-2.2-3.5-4.5-3.5-7.9
		C391.1,278.9,391,267.9,391,257z"/>
	<path class="st0" d="M97.6,328.5c-24.1,0-48.2-0.1-72.3,0.1c-4.7,0.1-5.7-1.2-5.6-5.7c0.3-12.2,0.3-24.3,0-36.5
		c-0.1-4,0.6-5.7,5.2-5.5c5.4,0.2,12.7,2.6,15.6-1.1c2.7-3.4,0.9-10.4,1-15.9c0.1-12.4-0.2-24.7,0.1-37.1c0.1-4.8-1.2-8.5-4.3-12.1
		c-4.1-4.7-10.2-9.7-10.7-15c-0.5-5.4,6.4-10.2,10.3-15c3.5-4.2,4.7-8.5,4.6-13.8c-0.3-15-0.3-30,0-45c0.1-4.7-1.3-6.3-5.8-5.5
		c-0.2,0-0.4,0-0.6,0c-5-0.4-11.6,2.2-14.5-1.1c-2.5-2.8-0.8-9.2-0.9-14.1c-0.1-9.3,0.1-18.6-0.1-28c-0.1-3.4,0.9-4.4,4.4-4.4
		c26.3,0.1,52.7,0.2,79,0c3.9,0,4.7,1.3,4.6,4.9c-0.2,12.8-0.2,25.5,0,38.3c0,3.4-0.8,5-4.4,4.4c-0.2,0-0.4,0-0.6,0
		c-5.2,0.1-12.2-1.7-15.2,0.9c-3.6,3.1-1.1,10.2-1.1,15.6c-0.2,11.5,0.2,23.1-0.2,34.7c-0.2,5.2,1.3,9.3,4.6,13.2
		c4.1,4.7,10.6,10,10.5,14.9c-0.1,5-6.7,10.1-10.8,14.8c-3.1,3.6-4.4,7.3-4.4,12c0.3,16.6,0.2,33.2,0.1,49.9c0,3.1,0.3,4.8,4.1,4.7
		c12.4-0.2,24.7-0.2,37.1,0c3.8,0.1,4.2-1.6,4.2-4.7c-0.1-9.9,0.1-19.9-0.1-29.8c-0.1-4,0.7-5.7,5.2-5.6c11.5,0.3,23.1,0.2,34.7,0
		c3.3,0,4.6,0.8,4.6,4.4c-0.1,26.3-0.1,52.7,0,79c0,4-1.9,4-4.8,4C146.7,328.5,122.1,328.5,97.6,328.5z"/>
	<path class="st2" d="M709.2,63c-0.5,12.4-0.5,12.4,10.8,17.1c4.3,1.8,8.6,3.6,12.9,5.4c2.8,1.2,3.2,2.9,1.2,5.1
		c-7,7.2-15.3,12.5-24.2,17.1c-2.1,1.1-4,0-5.8-0.7c-26.5-11.1-53-22.3-79.5-33.4c-3.4-1.4-5.4-3.8-6.4-7.5
		c-2.1-8-3.9-16.1-4.5-24.4c-0.3-4.8,1.3-6.3,6.1-4.1c6.2,2.9,12.7,5.2,18.9,8.2c3.3,1.6,5.4,1,7.7-1.7c7.3-8.7,15.8-16.3,25.5-22.4
		c0.7-0.4,1.3-0.9,2-1.3c16.7-10.3,28.1-5.7,32.5,13.6C708.5,43.5,709.8,53.2,709.2,63z"/>
	<path class="st3" d="M729.2,327.3c0,2.3,0,4,0,5.8c0,1.7-0.6,2.6-2.5,2.6c-1.9,0-2.5-0.9-2.5-2.6c0-7.1,0-14.1,0-21.2
		c0-0.7,0.5-1.4,0.8-2.1c4.6,2.3,9.9-2.9,14.3,1.1c4.2,3.8,4.1,8.6,2.1,13.3C739,329.9,734.3,329.1,729.2,327.3z M737.6,319.3
		c-0.1-2.8-0.6-5.6-3.9-5.8c-3.3-0.2-4.4,2.4-4.4,5.2c0,2.9,0.6,6,4.2,6.1C736.8,324.8,737.4,321.9,737.6,319.3z"/>
	<path class="st4" d="M813.8,321.4c1.1-3.4,2.2-6.4,3.2-9.4c0.7-2.1,2.2-3,4.2-2.4c2.8,0.9,0.8,2.7,0.4,3.9
		c-2,5.9-4.2,11.8-6.4,17.6c-1.4,3.7-4.1,5.4-8.1,4.8c-1.1-0.2-1.9-0.7-2.1-1.9c-0.2-1.2,0.4-1.8,1.6-2c4.9-1,3.9-4.1,2.6-7.4
		c-1.5-3.8-3-7.5-4.3-11.3c-0.5-1.3-1.9-3.2,0.8-3.8c1.6-0.4,3.1,0,3.9,2C810.9,314.6,811.1,318.2,813.8,321.4z"/>
	<path class="st5" d="M764.6,321.8c0,0.4,0.1,2.2,0.4,4c0.2,1.2,0.4,3.2-1.1,2.5c-3.9-1.6-7.4,0.9-11,0.3c-2.4-0.4-4.1-1.7-4.5-4.2
		c-0.3-2.4,0.3-4.5,2.6-5.6c1.6-0.8,3.5-1,5.1-1.7c1.3-0.5,3.9-0.3,2.9-2.7c-0.7-1.6-2.7-1.6-4.2-0.6c-1.7,1.2-4.3,2.5-5.1,0.3
		c-1.1-2.8,2-4,4.3-4.7C761.3,307.3,764.5,310.7,764.6,321.8z M757.1,320.1c-1.4,0.4-3.5,0.4-3.6,2.8c-0.1,1.5,1,2,2.3,2.1
		c2,0,3.4-0.9,3.7-3C759.7,320.4,758.8,319.9,757.1,320.1z"/>
	<path class="st6" d="M798.5,312.3c-1.9,1.7-3.9,4-3.1,7.5c0.3,1.5-0.4,3.6,1.1,4.4c1.9,1,3.6,2.3,1.5,3.8c-2.1,1.5-5.1,1.5-7-1.2
		c-1.2-1.7-0.9-3.8-1.1-5.8c-0.3-2.7,0.7-5.4-1.5-8c-1.6-2,2.1-8.4,4.8-9c0.5-0.1,1.5-0.2,1.6,0.1
		C796.2,306.6,797.2,309.2,798.5,312.3z"/>
	<path class="st7" d="M772.8,318.6c0-0.6,0-1.2,0-1.8c0-6.1,4.4-9.4,10.1-7.3c0.7,0.2,1.7,1,1.6,1.5c-0.1,0.9-0.7,2.5-1.2,2.5
		c-6.7,0.3-5,5.4-5.6,9.4c-0.3,2,1.8,5.5-2.5,5.5c-4.2,0-1.9-3.6-2.4-5.5C772.6,321.5,772.8,320.1,772.8,318.6z"/>
	<path class="st8" d="M733.5,324.7"/>
	<path class="st8" d="M733.7,313.5"/>
	<path class="st8" d="M759.5,322"/>
	<path class="st8" d="M753.5,322.9"/>
</g>
</svg>
