<?xml version="1.0" encoding="UTF-8"?>
<svg width="61px" height="61px" viewBox="0 0 61 61" version="1.1" xmlns="http://www.w3.org/2000/svg" xmlns:xlink="http://www.w3.org/1999/xlink" preserveAspectRatio="none">
    <!-- Generator: Sketch 52.2 (67145) - http://www.bohemiancoding.com/sketch -->
    <title>no-entry</title>
    <desc>Created with Sketch.</desc>
    <g id="Page-1" stroke="none" stroke-width="1" fill="none" fill-rule="evenodd">
        <g id="Startvy-Copy-18" transform="translate(-69.000000, -332.000000)" fill="#FFD691" fill-rule="nonzero">
            <g id="no-entry" transform="translate(69.000000, 332.000000)">
                <path d="M52.0642148,9.04084211 C40.1458633,-2.85463353 20.8555664,-2.8557037 8.93602344,9.04084211 C3.1758125,14.7898246 0.00369335938,22.4331365 0.00369335938,30.5630214 C0.00369335938,47.3858226 13.6432695,61 30.5001191,61 C47.3554199,61 60.9964258,47.3868928 60.9964258,30.5630214 C60.9964258,22.4331365 57.8241875,14.7898246 52.0642148,9.04084211 Z M30.5002383,59.2164932 C14.6697852,59.2164932 1.79080273,46.362616 1.79080273,30.5630214 C1.79080273,14.7634269 14.669666,1.90966862 30.5002383,1.90966862 C46.3304531,1.90966862 59.2093164,14.7635458 59.2095547,30.5631404 C59.2094355,46.362616 46.3305723,59.2164932 30.5002383,59.2164932 Z" id="Shape"></path>
                <path d="M55.1557949,31.7551969 C54.6638633,31.7158382 54.2319785,32.0787466 54.1907559,32.5694815 C53.8367891,36.786924 52.3650449,40.8048382 49.9201602,44.2521111 L41.9357129,36.2832281 C41.9216543,17.7399415 41.9364277,39.2195517 41.9364277,20.6332203 C41.9364277,18.3821657 39.5826855,16.8792827 37.5363262,17.8345926 L37.5363262,16.6351637 C37.5363262,14.292193 35.0057793,12.795731 32.9498887,13.9282144 C31.9697187,11.2157953 28.1072988,11.2059259 27.1236738,13.9280955 C25.0572988,12.7903801 22.5473633,14.2981384 22.5492695,16.6337368 L22.5492695,16.934694 L16.7838164,11.1805984 C31.8509355,0.519153996 52.681125,10.5767817 54.1894453,28.5569181 C54.230668,29.047653 54.661123,29.4116316 55.1544844,29.3712027 C55.6461777,29.3300604 56.0114629,28.8988986 55.9703594,28.4080448 C54.295957,8.44939181 30.9508281,-2.04023002 14.8728008,10.3747563 C14.4471113,10.7034191 14.4073184,11.3310175 14.7877344,11.7105731 C51.8113984,48.6618285 49.4825566,46.5060195 50.0214297,46.5060195 C50.2949766,46.5060195 50.5570859,46.3806901 50.728291,46.1599961 C53.7476719,42.2650331 55.560873,37.6170234 55.9717891,32.7183548 C56.0127734,32.227501 55.6474883,31.7963392 55.1557949,31.7551969 Z M26.9414081,21.3180136 L24.3363789,18.7180819 C24.3363789,16.5150663 24.2379687,16.1898519 24.7159609,15.7101754 C25.5283809,14.8949396 26.9393633,15.4720019 26.9404355,16.6307641 C26.941627,18.3946511 26.9413887,17.4488538 26.9414081,21.3180136 Z M28.7283789,23.1015205 C28.7283789,22.2199337 28.7283789,15.8867544 28.7283789,14.973538 C28.7283789,14.2534288 29.3153848,13.6678051 30.0367812,13.6678051 C30.7582969,13.6678051 31.3451836,14.2536667 31.3451836,14.973538 C31.3453027,16.2821248 31.3453027,24.4457797 31.3453027,25.713462 L28.7283789,23.1015205 Z M33.132293,27.4969688 L33.132293,16.6350448 C33.132293,15.9149357 33.7192988,15.3293119 34.4405762,15.3293119 C35.1622109,15.3293119 35.7490977,15.9151735 35.7490977,16.6350448 C35.7492168,18.2505341 35.7492168,28.5355146 35.7492168,30.1089103 C34.3657559,28.7280273 34.9373926,29.2985497 33.132293,27.4969688 Z M40.147293,34.4982943 L37.0084141,31.3655341 C37.3193711,31.2259357 37.5363262,30.9147524 37.5363262,30.5523197 L37.5363262,20.6331014 C37.5363262,19.9139435 38.122498,19.3289142 38.8429414,19.3289142 C39.5632656,19.3289142 40.1493184,19.9140624 40.1493184,20.6331014 C40.1494375,32.7932671 40.1378809,22.180575 40.147293,34.4982943 Z" id="Shape"></path>
                <path d="M47.2751191,48.5491033 C10.0330703,11.3794133 12.3747793,13.5449727 11.8150566,13.560193 C11.5672441,13.5689922 11.3340859,13.6804094 11.1716973,13.8675712 C2.59047461,23.7550409 2.74035352,38.9366686 12.4250566,48.6028499 C22.1207207,58.2798519 37.3308086,58.4102943 47.2281777,49.8537661 C47.6205078,49.5147583 47.6413574,48.9147466 47.2751191,48.5491033 Z M30.5002383,54.2916647 C17.3907188,54.2916647 6.72536914,43.6469864 6.72536914,30.5631404 C6.72536914,25.1780175 8.5590625,19.9635283 11.9079863,15.7731969 L22.5618984,26.4063411 L22.5618984,29.0677485 L19.9854824,25.6918207 C17.5407168,22.2980565 12.9498711,25.3016823 14.4584297,28.5899747 C18.8790234,38.6875556 19.0703633,39.5700936 20.5716543,41.0371852 C20.6045371,41.0696472 21.9689355,42.4181871 21.9689355,42.4180682 C22.6831836,43.1242651 22.5811992,44.7837505 22.5811992,48.1735906 C22.5811992,49.4519747 23.6233223,50.4921852 24.9043223,50.4921852 L28.4155156,50.4921852 C28.9089961,50.4921852 29.3090703,50.0930097 29.3090703,49.6003723 C29.3090703,49.1077349 28.9089961,48.7085595 28.4155156,48.7085595 L24.9043223,48.7085595 C24.6087344,48.7085595 24.3681895,48.4684834 24.3681895,48.1734717 C24.3681895,44.8917193 24.6018242,42.51046 23.2264648,41.1507427 C20.2091094,38.1685205 21.2996035,39.7615361 16.0926816,27.8680819 C15.4662402,26.4334522 17.3780898,25.1163041 18.5399492,26.740117 C18.5540078,26.7596179 22.730125,32.231425 22.7447793,32.2505692 C23.2612539,32.9277524 24.3490078,32.5612768 24.3490078,31.7102495 L24.3490078,28.189848 L37.749707,41.5646628 C36.8117129,43.0311598 37.001623,43.8540058 37.001623,48.1737096 C37.001623,48.4687212 36.7610781,48.7087973 36.4654902,48.7087973 L32.5850801,48.7087973 C32.0915996,48.7087973 31.6915254,49.1079727 31.6915254,49.6006101 C31.6915254,50.0932476 32.0915996,50.492423 32.5850801,50.492423 L36.4654902,50.492423 C37.7463711,50.492423 38.7886133,49.4523314 38.7886133,48.1738285 C38.7886133,43.6574503 38.7109336,43.6337875 39.0639473,42.87646 L45.3190684,49.1193879 C41.1204336,52.4615458 35.8957598,54.2916647 30.5002383,54.2916647 Z" id="Shape"></path>
            </g>
        </g>
    </g>
</svg>