<?xml version="1.0" encoding="utf-8"?>
<!-- Generator: Adobe Illustrator 18.0.0, SVG Export Plug-In . SVG Version: 6.00 Build 0)  -->
<!DOCTYPE svg PUBLIC "-//W3C//DTD SVG 1.1//EN" "http://www.w3.org/Graphics/SVG/1.1/DTD/svg11.dtd">
<svg version="1.1" id="Capa_1" xmlns="http://www.w3.org/2000/svg" xmlns:xlink="http://www.w3.org/1999/xlink" x="0px" y="0px"
	 viewBox="9 10.4 64.1 78" enable-background="new 9 10.4 64.1 78" xml:space="preserve">
<path fill="#FFD691" d="M43.7,26.4c0.7,0.7,0.7,1.8,0,2.5c-0.7,0.7-1.8,0.7-2.5,0L28.4,16.3v41.2c0,1-0.8,1.7-1.8,1.7
	s-1.8-0.8-1.8-1.7V16.3L12,28.8c-0.7,0.7-1.8,0.7-2.5,0c-0.7-0.7-0.7-1.8,0-2.5l15.9-15.4c0.7-0.7,1.8-0.7,2.5,0L43.7,26.4z"/>
<path fill="#FFD691" d="M38.3,72.5c-0.7-0.7-0.7-1.8,0-2.5c0.7-0.7,1.8-0.7,2.5,0l12.8,12.5V41.3c0-1,0.8-1.7,1.8-1.7
	c1,0,1.8,0.8,1.8,1.7v41.2L70,70.1c0.7-0.7,1.8-0.7,2.5,0c0.7,0.7,0.7,1.8,0,2.5L56.6,88c-0.7,0.7-1.8,0.7-2.5,0L38.3,72.5z"/>
</svg>
